<?xml version="1.0" encoding="utf-8"?>
<!-- Generator: Adobe Illustrator 24.2.1, SVG Export Plug-In . SVG Version: 6.00 Build 0)  -->
<svg version="1.1" id="Layer_1" xmlns="http://www.w3.org/2000/svg" xmlns:xlink="http://www.w3.org/1999/xlink" x="0px" y="0px"
	 viewBox="0 0 83.21 81.07" style="enable-background:new 0 0 83.21 81.07;" xml:space="preserve">
<style type="text/css">
	.st0{fill:#FFFFFF;}
</style>
<path class="st0" d="M29.5,47.77l0-16.06c0-3.16,2.56-5.72,5.72-5.72c2,0,3.77,1.03,4.79,2.59l7.54,11.83l0.01-8.7
	c0-3.16,2.56-5.72,5.72-5.72c2,0,3.77,1.03,4.79,2.59l7.54,11.83V25.99h3.92l-0.01,25.53c0,0.38-0.31,0.69-0.69,0.69
	c-0.22,0-0.42-0.1-0.55-0.28L54.8,30.69c-0.33-0.49-0.88-0.8-1.51-0.8c-1.01,0-1.82,0.82-1.82,1.82l0,19.81
	c0,0.38-0.31,0.69-0.69,0.69c-0.22,0-0.42-0.1-0.55-0.28L36.73,30.69c-0.33-0.49-0.88-0.8-1.51-0.8c-1.01,0-1.82,0.82-1.82,1.82
	l0.01,19.97c0,0.31-0.25,0.55-0.55,0.55l-10.36,0c-5.84,0-10.58-4.77-10.58-10.61S16.65,31,22.49,31c0,0,5.82-0.02,5.82,0v3.94
	l-5.82,0c-3.69,0-6.68,2.99-6.68,6.68c0,3.69,2.99,6.72,6.68,6.72l6.45-0.01C29.25,48.33,29.5,48.08,29.5,47.77z"/>
<path class="st0" d="M68.84,57.24c-2,0-3.75-1.02-4.78-2.57l-7.57-11.94l0,8.79c0,3.16-2.56,5.72-5.72,5.72
	c-2,0-3.75-1.02-4.78-2.57l-7.57-11.94l-0.01,9.52c0,2.75-2.23,4.96-4.98,4.96l-10.95,0.01c-8.62,0-15.61-6.99-15.61-15.61
	s6.99-15.61,15.61-15.61c0,0,5.82-0.01,5.82,0v3.89l-5.82,0c-6.47,0-11.71,5.25-11.71,11.71s5.25,11.71,11.71,11.71l10.95,0.01
	c0.6,0,1.09-0.49,1.09-1.09l0-20.54c0-0.23,0.11-0.44,0.3-0.57c0.31-0.22,0.74-0.14,0.96,0.18l13.47,21.22
	c0.33,0.49,0.88,0.8,1.51,0.8c1.01,0,1.83-0.82,1.83-1.83l0-19.81c0-0.23,0.11-0.44,0.3-0.57c0.31-0.22,0.74-0.14,0.96,0.18
	l13.47,21.22c0.33,0.49,0.88,0.8,1.51,0.8c1.01,0,1.83-0.82,1.83-1.83V25.99h3.89l0,25.53C74.56,54.68,72,57.24,68.84,57.24z"/>
</svg>
