<?xml version="1.0" encoding="utf-8"?>
<!-- Generator: Adobe Illustrator 24.2.1, SVG Export Plug-In . SVG Version: 6.00 Build 0)  -->
<svg version="1.1" id="Layer_1" xmlns="http://www.w3.org/2000/svg" xmlns:xlink="http://www.w3.org/1999/xlink" x="0px" y="0px"
	 viewBox="0 0 83.21 81.07" style="enable-background:new 0 0 83.21 81.07;" xml:space="preserve">
<style type="text/css">
	.st0{fill:#FFF;}
</style>
<g>
	<path class="st0" d="M16.64,50.17c3.53-5.59,7.07-11.18,10.59-16.78c0.11-0.17,0.17-0.4,0.17-0.61c0.01-1.52,0.01-3.05,0.01-4.57
		v-0.45c1.03,0,2.03-0.01,3.03,0.01c0.23,0,0.37-0.06,0.49-0.26c2.37-3.74,4.74-7.48,7.11-11.22c0.75-1.18,2.24-3.58,3.39-5.43
		c-3.8,0.3-7.47,1.05-10.86,2.41c-2.79,5.88-5.57,11.76-8.38,17.62C17.75,40.16,13.3,49.43,8.86,58.7c0.26,0.81,0.51,1.63,0.82,2.41
		c1.1-1.75,2.21-3.49,3.31-5.24c0.15-0.23,0.24-0.54,0.25-0.82c0.05-1.34,0.06-2.69,0.09-4.03c0-0.14,0.01-0.27,0.02-0.41
		c0.96-0.06,1.88-0.12,2.8-0.16C16.38,50.44,16.52,50.36,16.64,50.17z"/>
	<path class="st0" d="M41.47,55.14c0.06-1.39,0.12-2.72,0.18-4.04c-0.07-0.02-0.11-0.04-0.15-0.04c-3.33,0.03-6.66,0.05-9.99,0.09
		c-0.3,0-0.61,0.08-0.91,0.13c-0.24,0.03-0.35,0.16-0.35,0.41c-0.01,0.52-0.06,1.05-0.05,1.57c0.02,5.07,0.05,10.15,0.07,15.22
		c0,0.09,0.02,0.17,0.04,0.29c3.77,0.05,7.52,0.1,11.3,0.15v-4.28h-6.92v-3h5.71v-3.64h-5.71v-2.68
		C36.95,55.27,39.21,55.21,41.47,55.14z"/>
	<path class="st0" d="M40.55,33.66c0-0.19,0.01-0.34,0-0.49c-0.07-1.16-0.11-2.33-0.21-3.49c-0.12-1.34,0.15-1.18-1.26-1.21
		c-3.43-0.07-6.87-0.07-10.3-0.1c-0.15,0-0.3,0-0.44,0v19.36h5.38c0.06-2.07,0.12-4.11,0.19-6.19c1.87-0.06,3.72-0.13,5.56-0.19
		V36.2h-5.7v-2.35C36.04,33.78,38.29,33.72,40.55,33.66z"/>
	<path class="st0" d="M24.66,51.03c0,0.21,0,0.36,0,0.51c-0.03,2.41-0.06,4.82-0.09,7.22c0,0.24-0.06,0.49-0.09,0.73
		c-0.31-0.28-0.54-0.57-0.73-0.88c-1.47-2.41-2.94-4.83-4.4-7.25c-0.14-0.22-0.27-0.32-0.54-0.31c-0.73,0.02-1.46-0.01-2.19,0.01
		c-0.67,0.02-1.33,0.07-1.99,0.11c-0.25,0.01-0.38,0.12-0.39,0.4c-0.03,0.92-0.11,1.84-0.11,2.76c-0.02,4.71-0.03,9.43-0.05,14.15
		c0,0.13,0.01,0.25,0.02,0.49c1.51-0.14,2.99-0.27,4.51-0.41c0.05-3.27,0.09-6.45,0.14-9.63c0.18,0.12,0.26,0.24,0.34,0.37
		c1.84,3.08,3.67,6.15,5.5,9.23c0.17,0.28,0.34,0.38,0.67,0.37c0.99-0.02,1.97-0.01,2.96-0.01h0.69
		c-0.05-5.92-0.09-11.79-0.14-17.69C27.38,51.15,26.04,51.09,24.66,51.03z"/>
	<path class="st0" d="M40.76,40.51c0.78,3.67,4.74,7.69,9.63,7.42c0.79-0.06,1.58-0.11,2.37-0.19c0.24-0.02,0.47-0.11,0.7-0.19
		c4.5-1.54,7.27-5.95,6.81-10.14c-0.34-3.08-1.67-5.56-4.29-7.27c-1.97-1.28-4.14-1.88-6.49-1.68c-2.01,0.16-3.8,0.94-5.33,2.24
		C41.09,33.29,39.92,36.56,40.76,40.51z M48.73,34.04c0.1-1.31,1.06-1.99,2.28-1.67c0.48,0.12,0.76,0.45,0.85,0.89
		c0.14,0.69,0.28,1.38,0.3,2.08c0.04,1.81,0.04,3.61,0,5.42c-0.02,0.7-0.15,1.4-0.3,2.08c-0.11,0.53-0.47,0.86-1.04,0.92
		c-1.4,0.16-1.99-0.35-2.09-1.9c-0.09-1.32-0.13-2.63-0.2-3.97C48.59,36.62,48.63,35.33,48.73,34.04z"/>
	<path class="st0" d="M59.97,32.21c0.97,1.7,1.93,3.4,2.91,5.09c0.22,0.38,0.22,0.69,0,1.06c-0.3,0.51-0.55,1.04-0.84,1.55
		c-1.35,2.36-2.71,4.73-4.06,7.09c-0.1,0.18-0.2,0.37-0.31,0.59c0.14,0.03,0.22,0.06,0.31,0.06c1.7,0.01,3.41,0.02,5.11,0
		c0.45,0,0.81-0.21,1.04-0.61c0.42-0.72,0.84-1.43,1.27-2.15c0.35-0.59,0.71-1.18,1.1-1.8c0.12,0.2,0.21,0.34,0.3,0.49
		c0.75,1.28,1.51,2.55,2.25,3.84c0.13,0.23,0.28,0.31,0.55,0.31c1.32-0.01,2.64-0.01,3.96-0.01h2.03c-0.16-0.26-0.27-0.44-0.38-0.63
		c-1.7-2.9-3.4-5.8-5.12-8.69c-0.29-0.49-0.29-0.88-0.01-1.37c1.5-2.6,2.97-5.22,4.45-7.84c0.11-0.2,0.21-0.4,0.35-0.65
		c-0.27-0.04-0.49-0.1-0.72-0.11c-1.72-0.03-3.43-0.06-5.15-0.09c-0.22,0-0.34,0.07-0.45,0.27c-0.49,0.9-0.97,1.8-1.5,2.68
		c-0.5,0.84-0.77,0.84-1.29,0.03c-0.57-0.89-1.11-1.81-1.68-2.7c-0.08-0.12-0.27-0.25-0.41-0.25c-1.68,0.01-3.36,0.04-5.03,0.08
		c-0.22,0-0.44,0.07-0.69,0.12c0.09,0.2,0.15,0.34,0.22,0.47C58.77,30.1,59.37,31.16,59.97,32.21z"/>
	<path class="st0" d="M59.58,51.06c-0.04,0.15-0.07,0.26-0.1,0.37c-0.61,2.98-1.22,5.95-1.84,8.93c-0.03,0.13-0.1,0.26-0.15,0.39
		c-0.04,0-0.08-0.01-0.12-0.01c-0.56-1.56-0.88-3.18-1.22-4.8c-0.34-1.62-0.68-3.24-1.02-4.86h-3.76c-0.67,3.28-1.33,6.55-2,9.82
		c-0.05,0-0.09-0.01-0.14-0.01c-0.1-0.4-0.21-0.8-0.3-1.21c-0.57-2.59-1.13-5.19-1.69-7.79c-0.13-0.58-0.24-0.73-0.79-0.76
		c-1.13-0.05-2.25-0.05-3.38-0.07c-0.17,0-0.34,0-0.55,0c1.39,5.93,2.76,11.81,4.13,17.68h4.18c0.63-3.04,1.17-6.07,2.02-9.06
		c1,3.02,1.42,6.16,2.18,9.2h4.06c1.35-5.88,2.69-11.75,4.05-17.66C61.92,50.96,60.75,51.09,59.58,51.06z"/>
	<path class="st0" d="M75.96,61.62c-0.26-1.45-1.04-2.58-2.45-3.16c-0.75-0.31-1.53-0.58-2.29-0.87c-0.93-0.35-1.87-0.69-2.78-1.07
		c-0.36-0.15-0.64-0.44-0.57-0.91c0.08-0.45,0.37-0.72,0.78-0.86c0.91-0.31,2.06,0.04,2.67,0.81c0.14,0.17,0.25,0.36,0.4,0.51
		c0.07,0.07,0.23,0.15,0.31,0.12c0.94-0.31,1.89-0.62,2.82-0.99c0.61-0.24,0.69-0.55,0.46-1.17c-0.38-1.04-1.11-1.8-1.98-2.43
		c-1.48-1.07-3.16-1.26-4.91-1.01c-2.54,0.36-5.03,2.27-5.29,5.27c-0.12,1.34,0.07,2.64,1.06,3.64c0.51,0.52,1.13,0.98,1.79,1.3
		c1.07,0.51,2.2,0.89,3.3,1.33c0.47,0.19,0.95,0.37,1.41,0.6c0.5,0.25,0.58,0.72,0.55,1.22c-0.02,0.46-0.38,0.64-0.76,0.76
		c-0.98,0.3-1.92,0.16-2.71-0.49c-0.42-0.34-0.73-0.81-1.11-1.22c-0.09-0.1-0.25-0.23-0.35-0.21c-1.19,0.24-2.37,0.5-3.56,0.76
		c-0.24,0.05-0.3,0.21-0.25,0.43c0.32,1.28,0.87,2.44,1.9,3.31c1.45,1.23,3.18,1.7,5.07,1.75c1.5-0.03,2.98-0.28,4.21-1.23
		C75.7,66.22,76.41,64.1,75.96,61.62z"/>
	<path class="st0" d="M17.98,21.48c-3.13,3.13-5.64,6.86-7.5,10.95c-0.96,4.56-1.92,9.13-2.88,13.69c-0.16,0.76-0.32,1.52-0.48,2.29
		c0.04,2.58,0.41,5.06,0.97,7.47c4.25-12.25,8.5-24.51,12.75-36.76C19.88,19.91,18.86,20.61,17.98,21.48z"/>
</g>
</svg>
