<?xml version="1.0" encoding="utf-8"?>
<!-- Generator: Adobe Illustrator 24.2.3, SVG Export Plug-In . SVG Version: 6.00 Build 0)  -->
<svg version="1.1" id="Layer_1" xmlns="http://www.w3.org/2000/svg" xmlns:xlink="http://www.w3.org/1999/xlink" x="0px" y="0px"
	 viewBox="0 0 83.2 81.1" style="enable-background:new 0 0 83.2 81.1;" xml:space="preserve">
<style type="text/css">
	.st0{fill:#FFFFFF;}
</style>
<g>
	<path class="st0" d="M33.1,44c0-4.8,0-9.5,0-14.3c0-0.7-0.2-0.9-0.9-0.8l-1.9,0c-1.5-0.2-2.5,0.2-2.9,1.7c0,0.1-0.1,0.1-0.1,0.2
		c-1.4,2.4-2.8,4.7-4.2,7.1c-0.7,1.2-1.4,2.4-2.2,3.6c-0.1-0.2-0.2-0.3-0.3-0.4c-2.3-3.8-4.5-7.6-6.8-11.4c-0.2-0.3-0.5-0.6-0.7-0.7
		c-1.4-0.1-2.8,0-4.3,0c0,0.3,0,0.5,0,0.7c0,7.3,0,14.5,0,21.8c0,0.1,0,0.3,0,0.4c0.1,0.1,0.2,0.3,0.3,0.3c1.4,0,2.9,0,4.4,0
		c0-4.6,0-9,0-13.7c0.2,0.2,0.3,0.3,0.3,0.4c1.6,2.7,3.3,5.3,4.8,8.1c0.7,1.4,1.6,1.9,3,1.7c0.5-0.1,0.7-0.2,1-0.6
		c1.8-3.1,3.6-6.1,5.5-9.2c0-0.1,0.1-0.1,0.3-0.3c0,0.4,0,0.6,0,0.8c0,4,0,8,0,12c0,0.7,0.2,0.8,0.8,0.8c1,0,2-0.1,3,0
		c0.7,0,1-0.1,0.9-0.9C33.1,48.9,33.1,46.4,33.1,44z"/>
	<path class="st0" d="M55.8,29c0.7,0,1.2,0,1.8,0c3.2,0,6.4,0,9.6,0.1c1.8,0,3.4,0.7,4.6,2c2.5,2.4,2.7,6.2-0.3,8.6c0,0.1,0.1,0.1,0.1,0.2
		c2.5,1.3,3.1,3.5,3,6.1c-0.2,4.1-3.4,6-6.5,6.2c-2.4,0.2-4.8,0.1-7.2,0.1c-1.4,0-2.8,0-4.3,0c-0.6,0-0.8-0.1-0.8-0.8
		c0-5.3,0-10.6,0-15.9c0-2,0-3.9,0-5.9C55.8,29.5,55.8,29.3,55.8,29z M60.5,47.7c0.2,0,0.3,0.1,0.4,0.1c2.1,0,4.2,0,6.3,0
		c1.4,0,2.4-1.2,2.4-2.6c0-1.5-1-2.7-2.4-2.8c-2.1-0.1-4.1,0-6.2,0c-0.2,0-0.4,0.3-0.4,0.4C60.5,44.4,60.5,46,60.5,47.7z M63.9,33.4
		c-0.9,0-1.9,0-2.8,0c-0.4,0-0.6,0.1-0.6,0.6c0,1.2,0,2.4,0,3.5c0,0.5,0.2,0.6,0.6,0.6c1.9,0,3.7,0,5.6,0c1.4,0,2.3-1.1,2.3-2.4
		c0-1.3-1-2.2-2.4-2.2C65.7,33.3,64.8,33.4,63.9,33.4z"/>
	<path class="st0" d="M41.7,47.4c0-6.2,0-12.3,0-18.4c-1.6,0-3.1,0-4.7,0c0,0.2,0,0.4,0,0.5c0,7.3,0,14.6,0,21.9c0,0.6,0.2,0.7,0.7,0.7l14.1,0
		c0.2,0,0.4,0,0.6-0.1c0-1.6,0-3.1,0-4.7C48.7,47.4,45.2,47.4,41.7,47.4z"/>
</g>
</svg>
