<?xml version="1.0" encoding="utf-8"?>
<!-- Generator: Adobe Illustrator 24.2.3, SVG Export Plug-In . SVG Version: 6.00 Build 0)  -->
<svg version="1.1" id="Layer_1" xmlns="http://www.w3.org/2000/svg" xmlns:xlink="http://www.w3.org/1999/xlink" x="0px" y="0px"
	 viewBox="0 0 83.2 81.1" style="enable-background:new 0 0 83.2 81.1;" xml:space="preserve">
<style type="text/css">
	.st0{fill:#FFFFFF;}
</style>
<path class="st0" d="M22.2,41.4c0-6.5,0-12.9,0-19.4c2.2,0,4.4,0,6.7,0c0,11.1,0,22.2,0,33.3c-0.1,0-0.2,0-0.4,0c-2.2,0-4.5,0-6.7,0
	c-0.3,0-0.4-0.1-0.5-0.3c-1.7-6.3-3.5-12.6-5.2-18.9c-0.1-0.4-0.2-0.9-0.3-1.3c0,6.8,0,13.6,0,20.5c-2.2,0-4.4,0-6.7,0
	c0-11.1,0-22.2,0-33.3c0.1,0,0.2,0,0.3,0c2.3,0,4.6,0,6.8,0c0.3,0,0.4,0.1,0.4,0.3c1.7,5.9,3.4,11.8,5.1,17.8
	C22,40.4,22,40.9,22.2,41.4C22.1,41.4,22.2,41.4,22.2,41.4z"/>
<path class="st0" d="M31.5,55.3c0-11.1,0-22.2,0-33.4c0.1,0,0.2,0,0.4,0c3.6,0,7.2,0,10.7,0c1.3,0,2.5,0.1,3.8,0.5c2.1,0.7,3.4,2,3.9,4.1
	c0.6,2.4,0.6,4.8-0.1,7.2c-0.5,1.8-1.6,3-3.4,3.7c-0.1,0-0.2,0.1-0.4,0.2c0.2,0.1,0.3,0.1,0.5,0.1c2.2,0.5,3.6,1.9,4.2,4.1
	c0.7,2.8,0.6,5.6-0.3,8.4c-0.9,2.8-3,4.4-5.9,4.9c-0.8,0.1-1.7,0.2-2.5,0.2c-3.5,0-6.9,0-10.4,0C31.8,55.3,31.6,55.3,31.5,55.3z
	 M39.4,49.5c0.2,0,0.3,0,0.4,0c0.8,0,1.6,0,2.4,0c1.3-0.1,2-0.7,2.1-2c0.1-1.2,0.1-2.3,0.1-3.5c0-0.6-0.1-1.2-0.3-1.8
	c-0.2-0.9-0.8-1.5-1.7-1.6c-1-0.1-1.9,0-2.9,0c0,0,0,0-0.1,0C39.4,43.6,39.4,46.5,39.4,49.5z M39.4,35.1c0.9,0,1.7,0.1,2.6,0
	c1.1-0.1,1.7-0.7,2-1.7c0.1-0.6,0.2-1.1,0.2-1.7c0-0.8-0.1-1.6-0.2-2.4c-0.2-1-0.9-1.6-2-1.6c-0.7,0-1.5,0-2.2,0c-0.1,0-0.2,0-0.3,0
	C39.4,30.1,39.4,32.6,39.4,35.1z"/>
<path class="st0" d="M74.2,55.2c-2.7,0-5.3,0-8,0c-0.2-2.4-0.5-4.9-0.7-7.3c-1.8,0-3.5,0-5.3,0c-0.1,0.8-0.2,1.6-0.3,2.4
	c-0.2,1.5-0.3,3.1-0.5,4.6c0,0.1-0.2,0.2-0.2,0.2c-2.5,0-4.9,0-7.4,0c0,0,0,0-0.1-0.1c0.1-0.6,0.2-1.2,0.3-1.9
	c0.9-4.6,1.7-9.3,2.6-13.9c0.9-5.1,1.9-10.2,2.8-15.2c0.1-0.7,0.2-1.3,0.4-2c0-0.2,0.1-0.3,0.4-0.3c3.2,0,6.4,0,9.6,0
	c0.2,0,0.3,0.1,0.3,0.3c0.9,4.7,1.8,9.4,2.6,14.1c0.8,4.5,1.7,9.1,2.6,13.6c0.3,1.7,0.6,3.4,1,5.1C74.2,55.1,74.2,55.1,74.2,55.2z
	 M62.9,27.1c-0.7,5.2-1.3,10.4-2,15.6c1.3,0,2.5,0,3.8,0C64.1,37.4,63.5,32.3,62.9,27.1z"/>
</svg>
