<?xml version="1.0" encoding="utf-8"?>
<!-- Generator: Adobe Illustrator 24.2.3, SVG Export Plug-In . SVG Version: 6.00 Build 0)  -->
<svg version="1.1" id="Layer_1" xmlns="http://www.w3.org/2000/svg" xmlns:xlink="http://www.w3.org/1999/xlink" x="0px" y="0px"
	 viewBox="0 0 83.2 81.1" style="enable-background:new 0 0 83.2 81.1;" xml:space="preserve">
<style type="text/css">
	.st0{fill:#FFFFFF;}
</style>
<g>
	<path class="st0" d="M34.1,61.3c-1.8-0.6-3.5-1-5-1.6c-0.5-0.2-0.9-0.8-1.1-1.4c-2.1-6-4.2-11.9-6.3-17.9c-0.1-0.3-0.2-0.6-0.6-0.9
		c0,3.8,0,7.6,0,11.4c0,0.3,0.3,0.8,0.6,1c1.4,1,1.8,2.4,1.6,4c0,0.8,0,1.6,0,2.5c-3.7-0.9-7.4-1.9-11.1-2.8c0-1.1-0.1-2.3,0.1-3.3
		c0.1-0.5,0.8-1.1,1.3-1.2c1.4-0.3,1.7-1.1,1.7-2.4c-0.1-7.3-0.1-14.5-0.1-21.8c0-1.2-0.4-1.9-1.5-2.1c-1.3-0.3-1.6-1.1-1.5-2.3
		c0.1-1.2,0-2.3,0-3.8c2.8,0,5.4,0,8.1,0c0.3,0,0.8,0.7,0.9,1.1c2.2,6.6,4.3,13.1,6.4,19.7c0.1,0.3,0.2,0.6,0.5,1.4
		c0-0.8,0.1-1.2,0.1-1.6c0-4.3-0.1-8.6-0.1-12.9c0-0.9-0.2-1.5-1.1-1.8c-1.3-0.4-1.5-1.4-1.5-2.7c0.1-3.2,0-3.2,3.3-3.2
		c2.4,0,4.8,0,7.4,0c0,1.7,0,3.2,0,4.7c0,0.2-0.2,0.6-0.4,0.7c-1.4,0.7-1.4,1.9-1.4,3.2c-0.1,11-0.2,22-0.3,33
		C34.1,60.7,34.1,60.9,34.1,61.3z"/>
	<path class="st0" d="M47.2,25.1c0,3.5,0,6.9,0,10.3c1.7,0,3.3,0.3,4.4-1.6c0.4-0.6,2.1-0.5,3.3-0.8c0,3.6,0,6.8,0,10.1
		c-1.6,0.3-2.9,0.4-4.1-1.2c-0.6-0.8-2.3-0.7-3.8-1c0,1.6,0,2.7,0,3.8c0,4.2,0,8.4,0,12.6c0,1.1,0.1,2.1,1,2.8
		c2.2,1.7,1.1,3.9,1.4,6.2c-2.9-1-5.5-2-8.1-2.9c-0.1-0.1-0.3-0.1-0.4-0.2c-2.5-0.9-3-1.8-2.5-4.5c0.1-0.5,0.8-0.9,1.3-1.1
		c0.9-0.4,1.2-0.9,1.2-1.9c-0.1-9.6-0.2-19.2-0.3-28.8c0-0.6-0.4-1.5-0.8-1.8c-1.4-0.7-1.8-1.8-1.7-3.3c0.1-0.9,0-1.7,0-2.7
		c6.4,0,12.7,0,19.1,0c0,3.1,0,6.1,0,9.5c-1.3,0.1-2.5,0.2-3.8,0.1c-0.3,0-0.7-0.5-0.8-0.8C50.9,24.7,50.9,24.7,47.2,25.1z"/>
	<path class="st0" d="M70.3,19c0.1,1.4,0.3,2.7,0.1,4.1c-0.1,0.6-0.9,1.1-1.3,1.6c-0.4,0.5-0.9,1-0.9,1.5c-0.1,8.2-0.1,16.5-0.1,24.7
		c0,0.2,0,0.4,0.1,0.8c1.4-0.4,2.7-0.8,3.9-1.3c0.3-0.1,0.5-0.9,0.6-1.4c0.2-1.9,0.3-3.7,0.5-5.7c1.6,0,3,0,4.7,0c0,3.9,0,7.9,0,12
		c-6,1.7-12.2,3.5-18.5,5.2c-0.3-2.4-0.8-4.5,1.2-6.2c0.4-0.3,0.7-1,0.7-1.5c0-8.9-0.1-17.8-0.2-26.6c0-0.9-0.3-1.3-1-1.8
		c-0.4-0.3-0.8-0.9-0.9-1.5c-0.1-1.3,0-2.6,0-4.1C62.8,19,66.5,19,70.3,19z"/>
</g>
</svg>
