<?xml version="1.0" encoding="utf-8"?>
<!-- Generator: Adobe Illustrator 24.2.1, SVG Export Plug-In . SVG Version: 6.00 Build 0)  -->
<svg version="1.1" id="Layer_1" xmlns="http://www.w3.org/2000/svg" xmlns:xlink="http://www.w3.org/1999/xlink" x="0px" y="0px"
	 viewBox="0 0 83.21 81.07" style="enable-background:new 0 0 83.21 81.07;" xml:space="preserve">
<style type="text/css">
	.st0{fill:#FFFFFF;}
</style>
<g>
	<path class="st0" d="M73.2,38.11c-1.2-3.26-4.66-5.31-7.95-4.73c-1.48,0.26-2.75,0.92-3.85,1.91c-5.74-3.8-12.01-5.81-18.96-6.06
		c1.07-5.13,2.12-10.21,3.19-15.35c3.42,0.73,6.75,1.44,10.07,2.18c0.21,0.05,0.44,0.37,0.51,0.61c0.67,2.39,2.75,3.98,5.12,3.86
		c2.29-0.12,4.24-1.86,4.64-4.14c0.39-2.18-0.78-4.42-2.8-5.33c-2.16-0.98-4.63-0.41-6.01,1.46c-0.33,0.45-0.64,0.48-1.09,0.39
		c-3.66-0.75-7.33-1.49-11-2.23c-1.32-0.27-1.99,0.17-2.28,1.5c-0.77,3.59-1.54,7.17-2.31,10.76c-0.43,2-0.86,4-1.3,6.05
		c-0.43,0-0.79-0.04-1.14,0.01c-2.31,0.33-4.64,0.54-6.91,1.04c-3.79,0.84-7.29,2.45-10.54,4.58c-0.43,0.28-0.72,0.29-1.14-0.04
		c-1.53-1.19-3.27-1.66-5.2-1.46c-3.03,0.31-5.67,2.61-6.29,5.53c-0.67,3.11,0.67,6.3,3.34,7.82c0.52,0.3,0.68,0.6,0.67,1.19
		c-0.09,3.49,0.65,6.77,2.65,9.71c3.2,4.7,7.75,7.55,12.98,9.46c6.49,2.37,13.17,2.82,19.95,1.69c5.47-0.91,10.55-2.83,14.95-6.31
		c4.75-3.77,7.41-8.57,7.16-14.77c-0.02-0.45,0.13-0.68,0.51-0.9C73.01,44.89,74.33,41.2,73.2,38.11z M24.29,45.15
		c0.03-2.68,2.2-4.84,4.87-4.84c2.66,0,4.88,2.25,4.86,4.94c-0.02,2.69-2.26,4.91-4.92,4.88C26.39,50.08,24.26,47.88,24.29,45.15z
		 M52.63,58.92c-1.27,0.73-2.49,1.54-3.81,2.14c-2.56,1.16-5.3,1.53-8.38,1.52c-3.97,0.05-7.89-1.02-11.39-3.47
		c-0.78-0.55-1-1.21-0.56-1.87c0.42-0.65,1.2-0.79,1.96-0.25c1.89,1.34,3.95,2.33,6.22,2.73c5.09,0.88,9.97,0.42,14.34-2.67
		c0.57-0.4,1.11-0.51,1.7-0.1C53.48,57.49,53.45,58.45,52.63,58.92z M52.51,50.42c-2.93-0.12-5.25-1.69-5.37-4.94
		c-0.1-2.68,2.12-4.98,4.82-4.95c2.85,0.03,4.98,2.22,4.9,4.93C57.01,48.48,54.37,50.49,52.51,50.42z"/>
</g>
</svg>
