<?xml version="1.0" encoding="utf-8"?>
<!-- Generator: Adobe Illustrator 24.2.1, SVG Export Plug-In . SVG Version: 6.00 Build 0)  -->
<svg version="1.1" id="Layer_1" xmlns="http://www.w3.org/2000/svg" xmlns:xlink="http://www.w3.org/1999/xlink" x="0px" y="0px"
	 viewBox="0 0 83.21 81.07" style="enable-background:new 0 0 83.21 81.07;" xml:space="preserve">
<style type="text/css">
	.st0{fill:#FFFFFF;}
</style>
<path class="st0" d="M69.1,30.65c0,0.53,0,1.12,0,1.69c0,2.6-0.28,5.24-0.88,7.91c-3.34,14.94-16.18,29.33-36.96,29.33
	c-7.49,0-14.49-2.18-20.4-5.87c1.09,0.1,2.11,0.18,3.2,0.18c6.23,0,11.92-2.07,16.49-5.59c-5.8-0.14-10.69-3.94-12.42-9.14
	c0.81,0.18,1.65,0.28,2.5,0.28c1.23,0,2.36-0.17,3.52-0.49c-4.47-0.88-8.16-3.97-9.78-8.09c-0.6-1.48-0.91-3.02-0.91-4.71
	c0-0.07,0-0.11,0-0.18c1.79,0.98,3.83,1.58,6.01,1.62c-3.52-2.32-5.91-6.33-5.91-10.9c0-2.39,0.7-4.61,1.83-6.58
	c6.54,7.95,16.35,13.15,27.43,13.68c-0.21-0.95-0.39-1.94-0.39-2.99c0-7.21,5.98-13.08,13.29-13.08c3.87,0,7.35,1.58,9.74,4.15
	c3.02-0.6,5.91-1.69,8.47-3.2c-0.99,3.09-3.1,5.63-5.87,7.28c2.71-0.35,5.27-1.05,7.63-2.07C73.95,26.46,71.66,28.78,69.1,30.65z"/>
</svg>
